<svg version="1.1" xmlns="http://www.w3.org/2000/svg" xmlns:xlink="http://www.w3.org/1999/xlink" x="0px" y="0px" viewBox="0 0 24 24" width="24" fill="#879e05">
<g>
	<path d="M12,1C5.9,1,1,5.9,1,12s4.9,11,11,11s11-4.9,11-11S18.1,1,12,1z M12,21c-5,0-9-4-9-9c0-5,4-9,9-9c5,0,9,4,9,9
		C21,17,17,21,12,21z"/>
	<path d="M12.7,7.3c-0.1-0.1-0.2-0.2-0.3-0.2c-0.2-0.1-0.5-0.1-0.8,0c-0.1,0.1-0.2,0.1-0.3,0.2l-4,4c-0.4,0.4-0.4,1,0,1.4
		s1,0.4,1.4,0l2.3-2.3V16c0,0.6,0.4,1,1,1s1-0.4,1-1v-5.6l2.3,2.3c0.2,0.2,0.5,0.3,0.7,0.3s0.5-0.1,0.7-0.3c0.4-0.4,0.4-1,0-1.4
		L12.7,7.3z"/>
</g>
</svg>
