<svg version="1.1" xmlns="http://www.w3.org/2000/svg" xmlns:xlink="http://www.w3.org/1999/xlink" x="0px" y="0px" viewBox="0 0 24 24" width="24" fill="#ff2e2e">
<g>
	<path d="M12,1C5.9,1,1,5.9,1,12s4.9,11,11,11s11-4.9,11-11S18.1,1,12,1z M12,21c-5,0-9-4-9-9c0-5,4-9,9-9c5,0,9,4,9,9
		C21,17,17,21,12,21z"/>
	<path d="M15.3,11.3L13,13.6V8c0-0.6-0.4-1-1-1s-1,0.4-1,1v5.6l-2.3-2.3c-0.4-0.4-1-0.4-1.4,0s-0.4,1,0,1.4l4,4
		c0.1,0.1,0.2,0.2,0.3,0.2C11.7,17,11.9,17,12,17s0.3,0,0.4-0.1c0.1-0.1,0.2-0.1,0.3-0.2l4-4c0.4-0.4,0.4-1,0-1.4
		S15.7,10.9,15.3,11.3z"/>
</g>
</svg>
